<svg width="314" height="649" viewBox="0 0 314 649" fill="none" xmlns="http://www.w3.org/2000/svg">
<g clip-path="url(#clip0_5_2)">
<path d="M11.7727 120.203V0H37.2973V120.203H11.7727Z" fill="white"/>
<path d="M161.717 120.203H129.28L76.9551 29.271H76.2221C77.263 45.3245 77.7834 56.78 77.7834 63.6377V120.203H54.9637V0H87.1518L139.433 90.0535H139.997C139.176 74.4344 138.765 63.3889 138.765 56.9167V0.0218963H161.732L161.717 120.203Z" fill="white"/>
<path d="M82.8194 218.61C82.8194 229.461 78.9098 238.002 71.0907 244.235C63.2715 250.468 52.3907 253.592 38.4482 253.607C25.6052 253.607 14.243 251.195 4.36157 246.373V222.688C11.0251 225.777 17.9225 228.335 24.9895 230.339C30.0179 231.727 35.2037 232.465 40.4201 232.536C46.0205 232.536 50.3162 231.467 53.307 229.329C56.2978 227.191 57.7932 224.018 57.7932 219.811C57.8246 217.557 57.1309 215.353 55.814 213.522C54.2157 211.422 52.2515 209.626 50.0156 208.221C47.45 206.542 42.2576 203.838 34.4384 200.109C27.108 196.653 21.593 193.337 17.8936 190.159C14.2765 187.057 11.2901 183.288 9.09704 179.06C6.81198 174.468 5.67986 169.39 5.79833 164.263C5.79833 153.623 9.40738 145.262 16.6254 139.18C23.8435 133.099 33.8178 130.058 46.5483 130.058C52.5872 130.023 58.6056 130.761 64.4566 132.254C70.5475 133.879 76.505 135.967 82.277 138.499L74.0229 158.377C68.8485 156.172 63.5257 154.333 58.0938 152.871C54.0441 151.844 49.8835 151.318 45.7053 151.304C40.8721 151.304 37.1678 152.43 34.5924 154.68C33.3309 155.762 32.3283 157.113 31.6585 158.634C30.9887 160.154 30.6687 161.805 30.7219 163.465C30.6771 165.526 31.2185 167.557 32.2833 169.322C33.5975 171.262 35.2936 172.913 37.268 174.177C39.5502 175.738 44.943 178.547 53.4463 182.604C64.6863 187.973 72.3955 193.359 76.5739 198.762C80.7522 204.165 82.8341 210.781 82.8194 218.61Z" fill="white"/>
<path d="M161.307 251.989H91.9899V131.786H161.307V152.666H117.515V179.023H158.264V199.911H117.515V230.903H161.307V251.989Z" fill="white"/>
<path d="M224.898 151.268C215.286 151.268 207.848 154.872 202.584 162.082C197.321 169.291 194.687 179.336 194.682 192.216C194.682 219.018 204.754 232.421 224.898 232.426C233.343 232.426 243.579 230.315 255.606 226.093V247.471C245.724 251.576 234.692 253.631 222.509 253.636C204.994 253.636 191.601 248.333 182.33 237.726C173.06 227.12 168.417 211.894 168.402 192.048C168.402 179.553 170.682 168.605 175.242 159.204C179.45 150.182 186.294 142.642 194.873 137.577C203.405 132.564 213.409 130.058 224.884 130.058C236.568 130.058 248.312 132.879 260.114 138.521L251.882 159.248C247.458 157.141 242.923 155.274 238.298 153.655C233.998 152.111 229.468 151.304 224.898 151.268Z" fill="white"/>
<path d="M58.2038 383.774H32.6865V284.781H-0.0146484V263.549H90.883V284.781H58.2038V383.774Z" fill="white"/>
<path d="M206.008 323.512C206.008 343.406 201.07 358.698 191.193 369.388C181.316 380.077 167.144 385.421 148.676 385.421C130.233 385.421 116.073 380.077 106.196 369.388C96.3198 358.698 91.379 343.35 91.3741 323.343C91.3741 303.331 96.3296 288.051 106.24 277.504C116.151 266.956 130.35 261.68 148.838 261.675C167.335 261.675 181.483 266.993 191.281 277.628C201.079 288.264 205.988 303.558 206.008 323.512ZM118.167 323.512C118.167 336.939 120.72 347.052 125.827 353.852C130.934 360.651 138.563 364.048 148.713 364.043C169.067 364.043 179.247 350.533 179.252 323.512C179.257 296.491 169.131 282.951 148.874 282.892C138.724 282.892 131.069 286.309 125.908 293.142C120.747 299.976 118.167 310.099 118.167 323.512Z" fill="white"/>
<path d="M58.2038 515.56H32.6865V416.567H-0.0146484V395.335H90.883V416.567H58.2038V515.56Z" fill="white"/>
<path d="M122.287 469.435V515.56H96.7473V395.357H131.824C148.175 395.357 160.275 398.329 168.124 404.274C175.972 410.219 179.897 419.249 179.897 431.363C179.989 438.116 177.936 444.724 174.032 450.238C170.123 455.744 164.608 460.061 157.487 463.19C175.594 490.215 187.393 507.672 192.886 515.56H164.598L135.87 469.435H122.287ZM122.287 448.715H130.519C138.587 448.715 144.542 447.373 148.383 444.688C152.224 442.004 154.145 437.782 154.145 432.022C154.145 426.326 152.19 422.27 148.28 419.854C144.371 417.438 138.294 416.232 130.05 416.237H122.287V448.715Z" fill="white"/>
<path d="M304.668 455.297C304.668 475.192 299.728 490.484 289.846 501.173C279.965 511.862 265.805 517.207 247.366 517.207C228.932 517.207 214.775 511.862 204.893 501.173C195.012 490.484 190.071 475.136 190.071 455.129C190.071 435.117 195.024 419.837 204.93 409.289C214.836 398.742 229.038 393.465 247.535 393.46C266.027 393.46 280.172 398.778 289.971 409.414C299.769 420.049 304.668 435.344 304.668 455.297ZM216.827 455.297C216.827 468.725 219.378 478.838 224.48 485.637C229.582 492.436 237.211 495.833 247.366 495.829C267.73 495.829 277.912 482.318 277.912 455.297C277.912 428.276 267.786 414.736 247.535 414.678C237.38 414.678 229.724 418.095 224.568 424.928C219.413 431.761 216.832 441.884 216.827 455.297ZM248.114 385.744C244.654 383.328 239.576 379.423 232.881 374.029C226.186 368.636 220.972 364.128 217.238 360.507V358.779H245.394C248.854 364.314 255.303 372.563 264.739 383.525V385.722L248.114 385.744Z" fill="white"/>
<path d="M94.9221 564.635C94.9221 577.57 90.8732 587.464 82.7755 594.316C74.6778 601.169 63.1665 604.586 48.2417 604.566H37.2973V647.316H11.7727V527.142H50.2209C64.8183 527.142 75.9166 530.278 83.5159 536.55C91.1151 542.822 94.9172 552.184 94.9221 564.635ZM37.2973 583.671H45.6907C53.5392 583.671 59.4036 582.124 63.2838 579.029C67.1641 575.935 69.1189 571.425 69.1482 565.499C69.1482 559.525 67.5135 555.113 64.2441 552.262C60.9747 549.412 55.8581 547.986 48.8941 547.986H37.2973V583.671Z" fill="white"/>
<path d="M104.994 647.345V527.142H130.519V647.345H104.994Z" fill="white"/>
<path d="M199.293 546.625C189.69 546.625 182.252 550.229 176.979 557.438C171.706 564.647 169.072 574.692 169.077 587.573C169.077 614.374 179.149 627.778 199.293 627.782C207.743 627.782 217.978 625.671 230 621.449V642.828C220.119 646.938 209.087 648.993 196.903 648.993C179.398 648.993 166.008 643.689 156.732 633.083C147.457 622.477 142.814 607.251 142.805 587.405C142.805 574.91 145.082 563.962 149.637 554.561C153.859 545.531 160.721 537.991 169.319 532.933C177.851 527.921 187.855 525.414 199.33 525.414C211.024 525.414 222.77 528.236 234.567 533.878L226.328 554.605C221.904 552.497 217.37 550.629 212.744 549.011C208.428 547.461 203.88 546.654 199.293 546.625Z" fill="white"/>
<path d="M314 613.967C314 624.817 310.09 633.359 302.271 639.592C294.452 645.825 283.571 648.949 269.629 648.963C256.786 648.963 245.426 646.552 235.549 641.73V618.045C242.211 621.134 249.106 623.692 256.17 625.696C261.201 627.084 266.389 627.823 271.608 627.892C277.199 627.892 281.492 626.823 284.488 624.686C287.483 622.548 288.979 619.375 288.974 615.168C289.004 612.915 288.313 610.712 287.002 608.879C285.399 606.78 283.433 604.984 281.196 603.578C278.645 601.879 273.445 599.166 265.597 595.436C258.237 591.981 252.722 588.664 249.052 585.487C245.435 582.384 242.449 578.616 240.256 574.387C237.973 569.795 236.844 564.717 236.964 559.591C236.964 548.95 240.571 540.589 247.784 534.508C254.997 528.426 264.974 525.385 277.714 525.385C283.751 525.351 289.767 526.089 295.615 527.582C301.708 529.206 307.668 531.294 313.443 533.827L305.196 553.734C300.021 551.53 294.699 549.69 289.267 548.228C285.215 547.201 281.052 546.675 276.871 546.661C272.043 546.661 268.339 547.786 265.758 550.036C264.498 551.119 263.496 552.471 262.828 553.991C262.159 555.512 261.84 557.162 261.895 558.822C261.85 560.883 262.392 562.914 263.456 564.679C264.768 566.618 266.462 568.27 268.434 569.533C270.711 571.095 276.104 573.904 284.612 577.96C295.852 583.329 303.564 588.715 307.747 594.119C311.93 599.522 314.015 606.138 314 613.967Z" fill="white"/>
</g>
<defs>
<clipPath id="clip0_5_2">
<rect width="314" height="649" fill="white"/>
</clipPath>
</defs>
</svg>
